<svg xmlns="http://www.w3.org/2000/svg" class="graphdiagram" viewBox="-2071.821237757013 -1524.9461771560143 2215.511391270443 2041.007791340261"><g class="layer relationships"><g class="related-pair"><g class="relationship" transform="translate(-629.9344563397972,73.06764833162897) rotate(-87.94490192813578)"><path class="relationship" d="M 135.30223010264194 4 L 590.3845113251963 4 L 590.3845113251963 16 L 622.3845113251963 0 L 590.3845113251963 -16 L 590.3845113251963 -4 L 135.30223010264194 -4 Z" fill="rgb(0, 0, 0)" stroke="rgb(51, 51, 51)" stroke-width="0px"/><text class="type" text-anchor="middle" baseline-shift="30%" alignment-baseline="alphabetic" x="362.8433707139191" y="0" font-size="50px" font-family="'Gill Sans', 'Gill Sans MT', Calibri, sans-serif">REPRESENTS</text></g></g><g class="related-pair"><g class="relationship" transform="translate(-603.4987632103488,-663.6388187857857) rotate(-54.08485465614204)"><path class="relationship" d="M 114.79610735916438 4 L 599.9774926570799 4 L 599.9774926570799 16 L 631.9774926570799 0 L 599.9774926570799 -16 L 599.9774926570799 -4 L 114.79610735916438 -4 Z" fill="rgb(0, 0, 0)" stroke="rgb(51, 51, 51)" stroke-width="0px"/><text class="type" text-anchor="middle" baseline-shift="30%" alignment-baseline="alphabetic" x="357.3868000081221" y="0" font-size="50px" font-family="'Gill Sans', 'Gill Sans MT', Calibri, sans-serif">LOCATED_IN</text></g></g></g><g class="layer nodes"><circle class="node node-id-0" r="99.79610735916438" fill="rgb(255, 255, 255)" stroke="rgb(0, 0, 0)" stroke-width="8px" cx="-603.4987632103488" cy="-663.6388187857857"/><g class="caption"><text class="caption node" text-anchor="middle" alignment-baseline="central" x="-603.4987632103488" y="-663.6388187857857" font-size="50px" font-family="'Gill Sans', 'Gill Sans MT', Calibri, sans-serif">District</text></g><circle class="node node-id-1" r="120.30223010264194" fill="rgb(255, 255, 255)" stroke="rgb(0, 0, 0)" stroke-width="8px" cx="-629.9344563397972" cy="73.06764833162897"/><g class="caption"><text class="caption node" text-anchor="middle" alignment-baseline="central" x="-629.9344563397972" y="73.06764833162897" font-size="50px" font-family="'Gill Sans', 'Gill Sans MT', Calibri, sans-serif">Legislator</text></g><circle class="node node-id-2" r="75.56869596192777" fill="rgb(255, 255, 255)" stroke="rgb(0, 0, 0)" stroke-width="8px" cx="-179.6629525966738" cy="-1248.8193040459348"/><g class="caption"><text class="caption node" text-anchor="middle" alignment-baseline="central" x="-179.6629525966738" y="-1248.8193040459348" font-size="50px" font-family="'Gill Sans', 'Gill Sans MT', Calibri, sans-serif">State</text></g></g><g class="layer properties"><g class="speech-bubble node-speech-bubble" transform="translate(-703.2948705695131,-663.6388187857857) "><path class="speech-bubble-outline" transform="scale(-1,1) " d="M 0 0 L 20 -10 L 20 -75 A 10 10 0 0 1 30 -85 L 1357.0263671875 -85 A 10 10 0 0 1 1367.0263671875 -75 L 1367.0263671875 75 A 10 10 0 0 1 1357.0263671875 85 L 30 85 A 10 10 0 0 1 20 75 L 20 10 Z" fill="rgb(255, 255, 255)" stroke="rgb(0, 0, 0)" stroke-width="3px"/><text class="speech-bubble-content property-key" x="-1190.5224609375" y="-50" alignment-baseline="central" text-anchor="end" font-size="50px" font-family="'Gill Sans', 'Gill Sans MT', Calibri, sans-serif" xml:space="preserve">wkt: </text><text class="speech-bubble-content property-value" x="-1190.5224609375" y="-50" alignment-baseline="central" font-size="50px" font-family="'Gill Sans', 'Gill Sans MT', Calibri, sans-serif">"POLYGON ((-116.04966551263801 48.44045716066...",</text><text class="speech-bubble-content property-key" x="-1190.5224609375" y="0" alignment-baseline="central" text-anchor="end" font-size="50px" font-family="'Gill Sans', 'Gill Sans MT', Calibri, sans-serif" xml:space="preserve">state: </text><text class="speech-bubble-content property-key" x="-1190.5224609375" y="50" alignment-baseline="central" text-anchor="end" font-size="50px" font-family="'Gill Sans', 'Gill Sans MT', Calibri, sans-serif" xml:space="preserve">district: </text><text class="speech-bubble-content property-value" x="-1190.5224609375" y="0" alignment-baseline="central" font-size="50px" font-family="'Gill Sans', 'Gill Sans MT', Calibri, sans-serif">"MT",</text><text class="speech-bubble-content property-value" x="-1190.5224609375" y="50" alignment-baseline="central" font-size="50px" font-family="'Gill Sans', 'Gill Sans MT', Calibri, sans-serif">0</text></g><g class="speech-bubble node-speech-bubble" transform="translate(-629.9344563397972,193.3698784342709) "><path class="speech-bubble-outline" transform="scale(1,1) " d="M 0 0 L -10 20 L -204.6875 20 A 10 10 0 0 0 -214.6875 30 L -214.6875 180 A 10 10 0 0 0 -204.6875 190 L 204.6875 190 A 10 10 0 0 0 214.6875 180 L 214.6875 30 A 10 10 0 0 0 204.6875 20 L 10 20 Z" fill="rgb(255, 255, 255)" stroke="rgb(0, 0, 0)" stroke-width="3px"/><text class="speech-bubble-content property-key" x="43.65234375" y="55" alignment-baseline="central" text-anchor="end" font-size="50px" font-family="'Gill Sans', 'Gill Sans MT', Calibri, sans-serif" xml:space="preserve">firstName: </text><text class="speech-bubble-content property-key" x="43.65234375" y="105" alignment-baseline="central" text-anchor="end" font-size="50px" font-family="'Gill Sans', 'Gill Sans MT', Calibri, sans-serif" xml:space="preserve">lastName: </text><text class="speech-bubble-content property-key" x="43.65234375" y="155" alignment-baseline="central" text-anchor="end" font-size="50px" font-family="'Gill Sans', 'Gill Sans MT', Calibri, sans-serif" xml:space="preserve">govtrackID: </text><text class="speech-bubble-content property-value" x="43.65234375" y="55" alignment-baseline="central" font-size="50px" font-family="'Gill Sans', 'Gill Sans MT', Calibri, sans-serif">"Ryan",</text><text class="speech-bubble-content property-value" x="43.65234375" y="105" alignment-baseline="central" font-size="50px" font-family="'Gill Sans', 'Gill Sans MT', Calibri, sans-serif">"Zinke",</text><text class="speech-bubble-content property-value" x="43.65234375" y="155" alignment-baseline="central" font-size="50px" font-family="'Gill Sans', 'Gill Sans MT', Calibri, sans-serif">412640</text></g><g class="speech-bubble node-speech-bubble" transform="translate(-126.2278152365702,-1302.2544414060385) "><path class="speech-bubble-outline" transform="scale(1,-1) " d="M 0 0 L 30 20 L 258.41796875 20 A 10 10 0 0 1 268.41796875 30 L 268.41796875 80 A 10 10 0 0 1 258.41796875 90 L 30 90 A 10 10 0 0 1 20 80 L 20 30 Z" fill="rgb(255, 255, 255)" stroke="rgb(0, 0, 0)" stroke-width="3px"/><text class="speech-bubble-content property-key" x="153.779296875" y="-55" alignment-baseline="central" text-anchor="end" font-size="50px" font-family="'Gill Sans', 'Gill Sans MT', Calibri, sans-serif" xml:space="preserve">code: </text><text class="speech-bubble-content property-value" x="153.779296875" y="-55" alignment-baseline="central" font-size="50px" font-family="'Gill Sans', 'Gill Sans MT', Calibri, sans-serif">"MT"</text></g></g><g class="layer overlay"><circle class="node overlay" r="103.79610735916438" stroke="none" fill="rgba(255, 255, 255, 0)" cx="-603.4987632103488" cy="-663.6388187857857"/><circle class="node ring" r="108.79610735916438" fill="none" stroke="rgba(255, 255, 255, 0)" stroke-width="10px" cx="-603.4987632103488" cy="-663.6388187857857"/><circle class="node overlay" r="124.30223010264194" stroke="none" fill="rgba(255, 255, 255, 0)" cx="-629.9344563397972" cy="73.06764833162897"/><circle class="node ring" r="129.30223010264194" fill="none" stroke="rgba(255, 255, 255, 0)" stroke-width="10px" cx="-629.9344563397972" cy="73.06764833162897"/><path class="relationship overlay" fill="rgba(255, 255, 255, 0)" stroke="rgba(255, 255, 255, 0)" stroke-width="10px" transform="translate(-629.9344563397972,73.06764833162897) rotate(-87.94490192813578)" d="M 135.30223010264194 4 L 590.3845113251963 4 L 590.3845113251963 16 L 622.3845113251963 0 L 590.3845113251963 -16 L 590.3845113251963 -4 L 135.30223010264194 -4 Z"/><circle class="node overlay" r="79.56869596192777" stroke="none" fill="rgba(255, 255, 255, 0)" cx="-179.6629525966738" cy="-1248.8193040459348"/><circle class="node ring" r="84.56869596192777" fill="none" stroke="rgba(255, 255, 255, 0)" stroke-width="10px" cx="-179.6629525966738" cy="-1248.8193040459348"/><path class="relationship overlay" fill="rgba(255, 255, 255, 0)" stroke="rgba(255, 255, 255, 0)" stroke-width="10px" transform="translate(-603.4987632103488,-663.6388187857857) rotate(-54.08485465614204)" d="M 114.79610735916438 4 L 599.9774926570799 4 L 599.9774926570799 16 L 631.9774926570799 0 L 599.9774926570799 -16 L 599.9774926570799 -4 L 114.79610735916438 -4 Z"/></g></svg>