<svg xmlns="http://www.w3.org/2000/svg" class="graphdiagram" viewBox="-2641.542283935547 -1701.1804144741034 2846.907876537383 2622.672661551427"><g class="layer relationships"><g class="related-pair"><g class="relationship" transform="translate(-629.9344563397972,-406.1801772909297) rotate(-139.83218340811317)"><path class="relationship" d="M 135.30223010264194 4 L 643.3447462359005 4 L 643.3447462359005 16 L 675.3447462359005 0 L 643.3447462359005 -16 L 643.3447462359005 -4 L 135.30223010264194 -4 Z" fill="rgb(0, 0, 0)" stroke="rgb(51, 51, 51)" stroke-width="0px"/><text class="type" text-anchor="middle" baseline-shift="30%" alignment-baseline="alphabetic" x="-389.32348816927123" y="0" font-size="50px" font-family="'Gill Sans', 'Gill Sans MT', Calibri, sans-serif" transform="rotate(180)">REPRESENTS</text></g></g><g class="related-pair"><g class="relationship" transform="translate(-1233.7272788353494,-915.843591735004) rotate(-159.68328772900495)"><path class="relationship" d="M 114.79610735916438 4 L 596.0172029973392 4 L 596.0172029973392 16 L 628.0172029973392 0 L 596.0172029973392 -16 L 596.0172029973392 -4 L 114.79610735916438 -4 Z" fill="rgb(0, 0, 0)" stroke="rgb(51, 51, 51)" stroke-width="0px"/><text class="type" text-anchor="middle" baseline-shift="30%" alignment-baseline="alphabetic" x="-355.40665517825175" y="0" font-size="50px" font-family="'Gill Sans', 'Gill Sans MT', Calibri, sans-serif" transform="rotate(180)">LOCATED_IN</text></g></g><g class="related-pair"><g class="relationship" transform="translate(-1489.3000964355467,-205.34664611816413) rotate(-70.21583720207232)"><path class="relationship" d="M 65 4 L 608.2690387222599 4 L 608.2690387222599 16 L 640.2690387222599 0 L 608.2690387222599 -16 L 608.2690387222599 -4 L 65 -4 Z" fill="rgb(0, 0, 0)" stroke="rgb(51, 51, 51)" stroke-width="0px"/><text class="type" text-anchor="middle" baseline-shift="30%" alignment-baseline="alphabetic" x="336.63451936112995" y="0" font-size="50px" font-family="'Gill Sans', 'Gill Sans MT', Calibri, sans-serif">RTREE_REFERENCE</text></g></g><g class="related-pair"><g class="relationship" transform="translate(-1368.4735583496092,323.7237583923339) rotate(-102.86431406537591)"><path class="relationship" d="M 65 4 L 445.69194321892644 4 L 445.69194321892644 16 L 477.69194321892644 0 L 445.69194321892644 -16 L 445.69194321892644 -4 L 65 -4 Z" fill="rgb(0, 0, 0)" stroke="rgb(51, 51, 51)" stroke-width="0px"/><text class="type" text-anchor="middle" baseline-shift="30%" alignment-baseline="alphabetic" x="-255.34597160946322" y="0" font-size="50px" font-family="'Gill Sans', 'Gill Sans MT', Calibri, sans-serif" transform="rotate(180)">RTREE_CHILD</text></g></g></g><g class="layer nodes"><circle class="node node-id-0" r="99.79610735916438" fill="rgb(255, 255, 255)" stroke="rgb(0, 0, 0)" stroke-width="8px" cx="-1233.7272788353494" cy="-915.843591735004"/><g class="caption"><text class="caption node" text-anchor="middle" alignment-baseline="central" x="-1233.7272788353494" y="-915.843591735004" font-size="50px" font-family="'Gill Sans', 'Gill Sans MT', Calibri, sans-serif">District</text></g><circle class="node node-id-1" r="120.30223010264194" fill="rgb(255, 255, 255)" stroke="rgb(0, 0, 0)" stroke-width="8px" cx="-629.9344563397972" cy="-406.1801772909297"/><g class="caption"><text class="caption node" text-anchor="middle" alignment-baseline="central" x="-629.9344563397972" y="-406.1801772909297" font-size="50px" font-family="'Gill Sans', 'Gill Sans MT', Calibri, sans-serif">Legislator</text></g><circle class="node node-id-2" r="75.56869596192777" fill="rgb(255, 255, 255)" stroke="rgb(0, 0, 0)" stroke-width="8px" cx="-1907.6082956142523" cy="-1165.3432298271857"/><g class="caption"><text class="caption node" text-anchor="middle" alignment-baseline="central" x="-1907.6082956142523" y="-1165.3432298271857" font-size="50px" font-family="'Gill Sans', 'Gill Sans MT', Calibri, sans-serif">State</text></g><circle class="node node-id-3" r="50" fill="rgb(255, 255, 255)" stroke="rgb(0, 0, 0)" stroke-width="8px" cx="-1489.3000964355467" cy="-205.34664611816413"/><circle class="node node-id-4" r="50" fill="rgb(255, 255, 255)" stroke="rgb(0, 0, 0)" stroke-width="8px" cx="-1368.4735583496092" cy="323.7237583923339"/></g><g class="layer properties"><g class="speech-bubble node-speech-bubble" transform="translate(-1163.1607745856636,-986.4100959846899) "><path class="speech-bubble-outline" transform="scale(1,-1) " d="M 0 0 L 30 20 L 1357.0263671875 20 A 10 10 0 0 1 1367.0263671875 30 L 1367.0263671875 180 A 10 10 0 0 1 1357.0263671875 190 L 30 190 A 10 10 0 0 1 20 180 L 20 30 Z" fill="rgb(255, 255, 255)" stroke="rgb(0, 0, 0)" stroke-width="3px"/><text class="speech-bubble-content property-key" x="196.50390625" y="-155" alignment-baseline="central" text-anchor="end" font-size="50px" font-family="'Gill Sans', 'Gill Sans MT', Calibri, sans-serif" xml:space="preserve">wkt: </text><text class="speech-bubble-content property-value" x="196.50390625" y="-155" alignment-baseline="central" font-size="50px" font-family="'Gill Sans', 'Gill Sans MT', Calibri, sans-serif">"POLYGON ((-116.04966551263801 48.44045716066...",</text><text class="speech-bubble-content property-key" x="196.50390625" y="-105" alignment-baseline="central" text-anchor="end" font-size="50px" font-family="'Gill Sans', 'Gill Sans MT', Calibri, sans-serif" xml:space="preserve">state: </text><text class="speech-bubble-content property-key" x="196.50390625" y="-55" alignment-baseline="central" text-anchor="end" font-size="50px" font-family="'Gill Sans', 'Gill Sans MT', Calibri, sans-serif" xml:space="preserve">district: </text><text class="speech-bubble-content property-value" x="196.50390625" y="-105" alignment-baseline="central" font-size="50px" font-family="'Gill Sans', 'Gill Sans MT', Calibri, sans-serif">"MT",</text><text class="speech-bubble-content property-value" x="196.50390625" y="-55" alignment-baseline="central" font-size="50px" font-family="'Gill Sans', 'Gill Sans MT', Calibri, sans-serif">0</text></g><g class="speech-bubble node-speech-bubble" transform="translate(-544.8679336423546,-321.1136545934871) "><path class="speech-bubble-outline" transform="scale(1,1) " d="M 0 0 L 30 20 L 439.375 20 A 10 10 0 0 1 449.375 30 L 449.375 180 A 10 10 0 0 1 439.375 190 L 30 190 A 10 10 0 0 1 20 180 L 20 30 Z" fill="rgb(255, 255, 255)" stroke="rgb(0, 0, 0)" stroke-width="3px"/><text class="speech-bubble-content property-key" x="278.33984375" y="55" alignment-baseline="central" text-anchor="end" font-size="50px" font-family="'Gill Sans', 'Gill Sans MT', Calibri, sans-serif" xml:space="preserve">firstName: </text><text class="speech-bubble-content property-key" x="278.33984375" y="105" alignment-baseline="central" text-anchor="end" font-size="50px" font-family="'Gill Sans', 'Gill Sans MT', Calibri, sans-serif" xml:space="preserve">lastName: </text><text class="speech-bubble-content property-key" x="278.33984375" y="155" alignment-baseline="central" text-anchor="end" font-size="50px" font-family="'Gill Sans', 'Gill Sans MT', Calibri, sans-serif" xml:space="preserve">govtrackID: </text><text class="speech-bubble-content property-value" x="278.33984375" y="55" alignment-baseline="central" font-size="50px" font-family="'Gill Sans', 'Gill Sans MT', Calibri, sans-serif">"Ryan",</text><text class="speech-bubble-content property-value" x="278.33984375" y="105" alignment-baseline="central" font-size="50px" font-family="'Gill Sans', 'Gill Sans MT', Calibri, sans-serif">"Zinke",</text><text class="speech-bubble-content property-value" x="278.33984375" y="155" alignment-baseline="central" font-size="50px" font-family="'Gill Sans', 'Gill Sans MT', Calibri, sans-serif">412640</text></g><g class="speech-bubble node-speech-bubble" transform="translate(-1983.17699157618,-1165.3432298271857) "><path class="speech-bubble-outline" transform="scale(-1,1) " d="M 0 0 L 20 -10 L 20 -25 A 10 10 0 0 1 30 -35 L 258.41796875 -35 A 10 10 0 0 1 268.41796875 -25 L 268.41796875 25 A 10 10 0 0 1 258.41796875 35 L 30 35 A 10 10 0 0 1 20 25 L 20 10 Z" fill="rgb(255, 255, 255)" stroke="rgb(0, 0, 0)" stroke-width="3px"/><text class="speech-bubble-content property-key" x="-134.638671875" y="0" alignment-baseline="central" text-anchor="end" font-size="50px" font-family="'Gill Sans', 'Gill Sans MT', Calibri, sans-serif" xml:space="preserve">code: </text><text class="speech-bubble-content property-value" x="-134.638671875" y="0" alignment-baseline="central" font-size="50px" font-family="'Gill Sans', 'Gill Sans MT', Calibri, sans-serif">"MT"</text></g><g class="speech-bubble node-speech-bubble" transform="translate(-1539.3000964355467,-205.34664611816413) "><path class="speech-bubble-outline" transform="scale(-1,1) " d="M 0 0 L 20 -10 L 20 -25 A 10 10 0 0 1 30 -35 L 1090.7421875 -35 A 10 10 0 0 1 1100.7421875 -25 L 1100.7421875 25 A 10 10 0 0 1 1090.7421875 35 L 30 35 A 10 10 0 0 1 20 25 L 20 10 Z" fill="rgb(255, 255, 255)" stroke="rgb(0, 0, 0)" stroke-width="3px"/><text class="speech-bubble-content property-key" x="-964.0576171875" y="0" alignment-baseline="central" text-anchor="end" font-size="50px" font-family="'Gill Sans', 'Gill Sans MT', Calibri, sans-serif" xml:space="preserve">bbox: </text><text class="speech-bubble-content property-value" x="-964.0576171875" y="0" alignment-baseline="central" font-size="50px" font-family="'Gill Sans', 'Gill Sans MT', Calibri, sans-serif">-116.050003,36.992426,-90.140061,49.384358</text></g><g class="speech-bubble node-speech-bubble" transform="translate(-1368.4735583496092,373.7237583923339) "><path class="speech-bubble-outline" transform="scale(1,1) " d="M 0 0 L -10 20 L -648.0712890625 20 A 10 10 0 0 0 -658.0712890625 30 L -658.0712890625 80 A 10 10 0 0 0 -648.0712890625 90 L 648.0712890625 90 A 10 10 0 0 0 658.0712890625 80 L 658.0712890625 30 A 10 10 0 0 0 648.0712890625 20 L 10 20 Z" fill="rgb(255, 255, 255)" stroke="rgb(0, 0, 0)" stroke-width="3px"/><text class="speech-bubble-content property-key" x="-521.38671875" y="55" alignment-baseline="central" text-anchor="end" font-size="50px" font-family="'Gill Sans', 'Gill Sans MT', Calibri, sans-serif" xml:space="preserve">bbox: </text><text class="speech-bubble-content property-value" x="-521.38671875" y="55" alignment-baseline="central" font-size="50px" font-family="'Gill Sans', 'Gill Sans MT', Calibri, sans-serif">"-158.12985850139603,21.255043,-70.573377,49.384358"</text></g></g><g class="layer overlay"><circle class="node overlay" r="103.79610735916438" stroke="none" fill="rgba(255, 255, 255, 0)" cx="-1233.7272788353494" cy="-915.843591735004"/><circle class="node ring" r="108.79610735916438" fill="none" stroke="rgba(255, 255, 255, 0)" stroke-width="10px" cx="-1233.7272788353494" cy="-915.843591735004"/><circle class="node overlay" r="124.30223010264194" stroke="none" fill="rgba(255, 255, 255, 0)" cx="-629.9344563397972" cy="-406.1801772909297"/><circle class="node ring" r="129.30223010264194" fill="none" stroke="rgba(255, 255, 255, 0)" stroke-width="10px" cx="-629.9344563397972" cy="-406.1801772909297"/><path class="relationship overlay" fill="rgba(255, 255, 255, 0)" stroke="rgba(255, 255, 255, 0)" stroke-width="10px" transform="translate(-629.9344563397972,-406.1801772909297) rotate(-139.83218340811317)" d="M 135.30223010264194 4 L 643.3447462359005 4 L 643.3447462359005 16 L 675.3447462359005 0 L 643.3447462359005 -16 L 643.3447462359005 -4 L 135.30223010264194 -4 Z"/><circle class="node overlay" r="79.56869596192777" stroke="none" fill="rgba(255, 255, 255, 0)" cx="-1907.6082956142523" cy="-1165.3432298271857"/><circle class="node ring" r="84.56869596192777" fill="none" stroke="rgba(255, 255, 255, 0)" stroke-width="10px" cx="-1907.6082956142523" cy="-1165.3432298271857"/><path class="relationship overlay" fill="rgba(255, 255, 255, 0)" stroke="rgba(255, 255, 255, 0)" stroke-width="10px" transform="translate(-1233.7272788353494,-915.843591735004) rotate(-159.68328772900495)" d="M 114.79610735916438 4 L 596.0172029973392 4 L 596.0172029973392 16 L 628.0172029973392 0 L 596.0172029973392 -16 L 596.0172029973392 -4 L 114.79610735916438 -4 Z"/><circle class="node overlay" r="54" stroke="none" fill="rgba(255, 255, 255, 0)" cx="-1489.3000964355467" cy="-205.34664611816413"/><circle class="node ring" r="59" fill="none" stroke="rgba(255, 255, 255, 0)" stroke-width="10px" cx="-1489.3000964355467" cy="-205.34664611816413"/><path class="relationship overlay" fill="rgba(255, 255, 255, 0)" stroke="rgba(255, 255, 255, 0)" stroke-width="10px" transform="translate(-1489.3000964355467,-205.34664611816413) rotate(-70.21583720207232)" d="M 65 4 L 608.2690387222599 4 L 608.2690387222599 16 L 640.2690387222599 0 L 608.2690387222599 -16 L 608.2690387222599 -4 L 65 -4 Z"/><circle class="node overlay" r="54" stroke="none" fill="rgba(255, 255, 255, 0)" cx="-1368.4735583496092" cy="323.7237583923339"/><circle class="node ring" r="59" fill="none" stroke="rgba(255, 255, 255, 0)" stroke-width="10px" cx="-1368.4735583496092" cy="323.7237583923339"/><path class="relationship overlay" fill="rgba(255, 255, 255, 0)" stroke="rgba(255, 255, 255, 0)" stroke-width="10px" transform="translate(-1368.4735583496092,323.7237583923339) rotate(-102.86431406537591)" d="M 65 4 L 445.69194321892644 4 L 445.69194321892644 16 L 477.69194321892644 0 L 445.69194321892644 -16 L 445.69194321892644 -4 L 65 -4 Z"/></g></svg>