<svg xmlns="http://www.w3.org/2000/svg" width="898.0235595703125" height="300.8673095703125" viewBox="-449.9005432128906 -71.48971557617188 898.0235595703125 300.8673095703125"><title>Neo4j Graph Visualization</title><desc>Created using Neo4j (http://www.neo4j.com/)</desc><g class="layer relationships"><g class="relationship" transform="translate(285.1460757995723 -9.799310676427623) rotate(450.43359172002863)"><path class="outline" fill="#A5ABB6" stroke="none" d="M 32.5 0.5 L 51.34169592918664 0.5 L 51.34169592918664 -0.5 L 32.5 -0.5 Z M 127.58388342918664 0.5 L 146.42557935837328 0.5 L 146.42557935837328 3.5 L 153.42557935837328 0 L 146.42557935837328 -3.5 L 146.42557935837328 -0.5 L 127.58388342918664 -0.5 Z"/><text text-anchor="middle" pointer-events="none" font-size="8px" fill="#000000" x="89.46278967918664" y="3" transform="rotate(180 89.46278967918664 0)" font-family="sans-serif">SENIOR_ADVISER</text></g><g class="relationship" transform="translate(285.1460757995723 -9.799310676427623) rotate(187.5642721226851)"><path class="outline" fill="#A5ABB6" stroke="none" d="M 32.5 0.5 L 48.27526175588426 0.5 L 48.27526175588426 -0.5 L 32.5 -0.5 Z M 71.61119925588426 0.5 L 87.38646101176852 0.5 L 87.38646101176852 3.5 L 94.38646101176852 0 L 87.38646101176852 -3.5 L 87.38646101176852 -0.5 L 71.61119925588426 -0.5 Z"/><text text-anchor="middle" pointer-events="none" font-size="8px" fill="#000000" x="59.94323050588426" y="3" transform="rotate(180 59.94323050588426 0)" font-family="sans-serif">CEO</text></g><g class="relationship" transform="translate(-1.0913713458837258 53.466624059505335) rotate(332.1186662677386)"><path class="outline" fill="#A5ABB6" stroke="none" d="M 40 0.5 L 59.68109664858963 0.5 L 59.68109664858963 -0.5 L 40 -0.5 Z M 106.43500289858963 0.5 L 126.11609954717926 0.5 L 126.11609954717926 3.5 L 133.11609954717926 0 L 126.11609954717926 -3.5 L 126.11609954717926 -0.5 L 106.43500289858963 -0.5 Z"/><text text-anchor="middle" pointer-events="none" font-size="8px" fill="#000000" x="83.05804977358963" y="3" font-family="sans-serif">INVESTOR</text></g><g class="relationship" transform="translate(-192.02575201272427 52.127734367752865) rotate(360.40176876975966)"><path class="outline" fill="#A5ABB6" stroke="none" d="M 40 0.5 L 61.7039124795498 0.5 L 61.7039124795498 -0.5 L 40 -0.5 Z M 122.2351624795498 0.5 L 143.9390749590996 0.5 L 143.9390749590996 3.5 L 150.9390749590996 0 L 143.9390749590996 -3.5 L 143.9390749590996 -0.5 L 122.2351624795498 -0.5 Z"/><text text-anchor="middle" pointer-events="none" font-size="8px" fill="#000000" x="91.9695374795498" y="3" font-family="sans-serif">PARENT_ORG</text></g><g class="relationship" transform="translate(-192.02575201272427 52.127734367752865) rotate(180.95103387812196)"><path class="outline" fill="#A5ABB6" stroke="none" d="M 40 0.5 L 55.85447202095061 0.5 L 55.85447202095061 -0.5 L 40 -0.5 Z M 151.0497845209506 0.5 L 166.90425654190122 0.5 L 166.90425654190122 3.5 L 173.90425654190122 0 L 166.90425654190122 -3.5 L 166.90425654190122 -0.5 L 151.0497845209506 -0.5 Z"/><text text-anchor="middle" pointer-events="none" font-size="8px" fill="#000000" x="103.45212827095061" y="3" transform="rotate(180 103.45212827095061 0)" font-family="sans-serif">AWARDED_CONTRACT</text></g><g class="relationship" transform="translate(283.739078233967 176.1209448569519) rotate(187.35764954225272)"><path class="outline" fill="#A5ABB6" stroke="none" d="M 32.5 0.5 L 56.3041584232743 0.5 L 56.3041584232743 -0.5 L 32.5 -0.5 Z M 104.3861896732743 0.5 L 128.1903480965486 0.5 L 128.1903480965486 3.5 L 135.1903480965486 0 L 128.1903480965486 -3.5 L 128.1903480965486 -0.5 L 104.3861896732743 -0.5 Z"/><text text-anchor="middle" pointer-events="none" font-size="8px" fill="#000000" x="80.3451740482743" y="3" transform="rotate(180 80.3451740482743 0)" font-family="sans-serif">CAMPAIGN</text></g><g class="relationship" transform="translate(117.42947714102354 154.6460891170951) rotate(220.48688708016755)"><path class="outline" fill="#A5ABB6" stroke="none" d="M 32.5 0.5 L 58.999416465682856 0.5 L 58.999416465682856 -0.5 L 32.5 -0.5 Z M 82.33535396568286 0.5 L 108.83477043136571 0.5 L 108.83477043136571 3.5 L 115.83477043136571 0 L 108.83477043136571 -3.5 L 108.83477043136571 -0.5 L 82.33535396568286 -0.5 Z"/><text text-anchor="middle" pointer-events="none" font-size="8px" fill="#000000" x="70.66738521568286" y="3" transform="rotate(180 70.66738521568286 0)" font-family="sans-serif">CEO</text></g><g class="relationship" transform="translate(164.61223056737015 62.370008414420354) rotate(403.677579622046)"><path class="outline" fill="#A5ABB6" stroke="none" d="M 32.5 0.5 L 57.85275920054721 0.5 L 57.85275920054721 -0.5 L 32.5 -0.5 Z M 99.86057170054721 0.5 L 125.21333090109442 0.5 L 125.21333090109442 3.5 L 132.21333090109442 0 L 125.21333090109442 -3.5 L 125.21333090109442 -0.5 L 99.86057170054721 -0.5 Z"/><text text-anchor="middle" pointer-events="none" font-size="8px" fill="#000000" x="78.85666545054721" y="3" font-family="sans-serif">ADVISOR</text></g><g class="relationship" transform="translate(164.61223056737015 62.370008414420354) rotate(183.07558965856697)"><path class="outline" fill="#A5ABB6" stroke="none" d="M 32.5 0.5 L 60.275998716584766 0.5 L 60.275998716584766 -0.5 L 32.5 -0.5 Z M 91.16662371658477 0.5 L 118.94262243316953 0.5 L 118.94262243316953 3.5 L 125.94262243316953 0 L 118.94262243316953 -3.5 L 118.94262243316953 -0.5 L 91.16662371658477 -0.5 Z"/><text text-anchor="middle" pointer-events="none" font-size="8px" fill="#000000" x="75.72131121658477" y="3" transform="rotate(180 75.72131121658477 0)" font-family="sans-serif">CHAIR</text></g><g class="relationship" transform="translate(-274.46169696000095 192.87760995011968) rotate(227.6705314152262)"><path class="outline" fill="#A5ABB6" stroke="none" d="M 32.5 0.5 L 48.00658807056202 0.5 L 48.00658807056202 -0.5 L 32.5 -0.5 Z M 132.68236932056203 0.5 L 148.18895739112403 0.5 L 148.18895739112403 3.5 L 155.18895739112403 0 L 148.18895739112403 -3.5 L 148.18895739112403 -0.5 L 132.68236932056203 -0.5 Z"/><text text-anchor="middle" pointer-events="none" font-size="8px" fill="#000000" x="90.34447869556202" y="3" transform="rotate(180 90.34447869556202 0)" font-family="sans-serif">ISSUED_CONTRACT</text></g><g class="relationship" transform="translate(411.62303833589436 73.91039327510529) rotate(501.366596009519)"><path class="outline" fill="#A5ABB6" stroke="none" d="M 32.5 0.5 L 45.199269218340845 0.5 L 45.199269218340845 -0.5 L 32.5 -0.5 Z M 111.51176921834085 0.5 L 124.21103843668169 0.5 L 124.21103843668169 3.5 L 131.2110384366817 0 L 124.21103843668169 -3.5 L 124.21103843668169 -0.5 L 111.51176921834085 -0.5 Z"/><text text-anchor="middle" pointer-events="none" font-size="8px" fill="#000000" x="78.35551921834085" y="3" transform="rotate(180 78.35551921834085 0)" font-family="sans-serif">PARENT_CHILD</text></g><g class="relationship" transform="translate(285.1460757995723 -9.799310676427623) rotate(393.49887496637854)"><path class="outline" fill="#A5ABB6" stroke="none" d="M 32.5 0.5 L 50.88960127338589 0.5 L 50.88960127338589 -0.5 L 32.5 -0.5 Z M 93.78022627338589 0.5 L 112.16982754677178 0.5 L 112.16982754677178 3.5 L 119.16982754677178 0 L 112.16982754677178 -3.5 L 112.16982754677178 -0.5 L 93.78022627338589 -0.5 Z"/><text text-anchor="middle" pointer-events="none" font-size="8px" fill="#000000" x="72.33491377338589" y="3" font-family="sans-serif">MARRIED</text></g></g><g class="layer nodes"><g class="node" transform="translate(-274.46169696000095,192.87760995011968)"><circle class="outline" cx="0" cy="0" r="32.5" fill="#DE9BF9" stroke="#BF85D6" stroke-width="2px"/><text text-anchor="middle" pointer-events="none" font-family="sans-serif" dy="2.03125" font-size="32.5" fill="#FFFFFF"/><text text-anchor="middle" pointer-events="none" font-family="sans-serif" dy="2.03125" font-size="32.5" fill="#FFFFFF"/><text text-anchor="middle" pointer-events="none" font-family="sans-serif" dy="2.03125" font-size="32.5" fill="#FFFFFF"/><text class="caption" text-anchor="middle" pointer-events="none" y="-5" font-size="10px" fill="#FFFFFF" font-family="sans-serif"> FEDERAL</text><text class="caption" text-anchor="middle" pointer-events="none" y="5" font-size="10px" fill="#FFFFFF" font-family="sans-serif"> PRISON</text><text class="caption" text-anchor="middle" pointer-events="none" y="15" font-size="10px" fill="#FFFFFF" font-family="sans-serif"> SYSTEM</text></g><g class="node" transform="translate(-405.9005422163204,48.57737070874023)"><circle class="outline" cx="0" cy="0" r="40" fill="#FF756E" stroke="#E06760" stroke-width="2px"/><text text-anchor="middle" pointer-events="none" font-family="sans-serif" dy="2.5" font-size="40" fill="#FFFFFF"/><text class="caption" text-anchor="middle" pointer-events="none" y="5" font-size="10px" fill="#FFFFFF" font-family="sans-serif"> DJU4500517056</text></g><g class="node" transform="translate(283.739078233967,176.1209448569519)"><circle class="outline" cx="0" cy="0" r="32.5" fill="#FF756E" stroke="#E06760" stroke-width="2px"/><text text-anchor="middle" pointer-events="none" font-family="sans-serif" dy="2.03125" font-size="32.5" fill="#FFFFFF"/><text text-anchor="middle" pointer-events="none" font-family="sans-serif" dy="2.03125" font-size="32.5" fill="#FFFFFF"/><text class="caption" text-anchor="middle" pointer-events="none" y="0" font-size="10px" fill="#FFFFFF" font-family="sans-serif"> DONALD J.</text><text class="caption" text-anchor="middle" pointer-events="none" y="10" font-size="10px" fill="#FFFFFF" font-family="sans-serif"> TRUMP</text></g><g class="node" transform="translate(411.62303833589436,73.91039327510529)"><circle class="outline" cx="0" cy="0" r="32.5" fill="#FF756E" stroke="#E06760" stroke-width="2px"/><text text-anchor="middle" pointer-events="none" font-family="sans-serif" dy="2.03125" font-size="32.5" fill="#FFFFFF"/><text text-anchor="middle" pointer-events="none" font-family="sans-serif" dy="2.03125" font-size="32.5" fill="#FFFFFF"/><text class="caption" text-anchor="middle" pointer-events="none" y="0" font-size="10px" fill="#FFFFFF" font-family="sans-serif"> IVANKA</text><text class="caption" text-anchor="middle" pointer-events="none" y="10" font-size="10px" fill="#FFFFFF" font-family="sans-serif"> TRUMP</text></g><g class="node" transform="translate(285.1460757995723,-9.799310676427623)"><circle class="outline" cx="0" cy="0" r="32.5" fill="#FF756E" stroke="#E06760" stroke-width="2px"/><text text-anchor="middle" pointer-events="none" font-family="sans-serif" dy="2.03125" font-size="32.5" fill="#FFFFFF"/><text text-anchor="middle" pointer-events="none" font-family="sans-serif" dy="2.03125" font-size="32.5" fill="#FFFFFF"/><text class="caption" text-anchor="middle" pointer-events="none" y="0" font-size="10px" fill="#FFFFFF" font-family="sans-serif"> JARED</text><text class="caption" text-anchor="middle" pointer-events="none" y="10" font-size="10px" fill="#FFFFFF" font-family="sans-serif"> KUSHNER</text></g><g class="node" transform="translate(151.9290701583305,-27.489712346511965)"><circle class="outline" cx="0" cy="0" r="40" fill="#FFD86E" stroke="#EDBA39" stroke-width="2px"/><text text-anchor="middle" pointer-events="none" font-family="sans-serif" dy="2.5" font-size="40" fill="#604A0E"/><text text-anchor="middle" pointer-events="none" font-family="sans-serif" dy="2.5" font-size="40" fill="#604A0E"/><text class="caption" text-anchor="middle" pointer-events="none" y="0" font-size="10px" fill="#604A0E" font-family="sans-serif"> KUSHNER</text><text class="caption" text-anchor="middle" pointer-events="none" y="10" font-size="10px" fill="#604A0E" font-family="sans-serif"> COMPANIES</text></g><g class="node" transform="translate(-1.0913713458837258,53.466624059505335)"><circle class="outline" cx="0" cy="0" r="40" fill="#FFD86E" stroke="#EDBA39" stroke-width="2px"/><text text-anchor="middle" pointer-events="none" font-family="sans-serif" dy="2.5" font-size="40" fill="#604A0E"/><text text-anchor="middle" pointer-events="none" font-family="sans-serif" dy="2.5" font-size="40" fill="#604A0E"/><text class="caption" text-anchor="middle" pointer-events="none" y="0" font-size="10px" fill="#604A0E" font-family="sans-serif"> VORNADO</text><text class="caption" text-anchor="middle" pointer-events="none" y="10" font-size="10px" fill="#604A0E" font-family="sans-serif"> REALTY TRUST</text></g><g class="node" transform="translate(-192.02575201272427,52.127734367752865)"><circle class="outline" cx="0" cy="0" r="40" fill="#FFD86E" stroke="#EDBA39" stroke-width="2px"/><text text-anchor="middle" pointer-events="none" font-family="sans-serif" dy="2.5" font-size="40" fill="#604A0E"/><text text-anchor="middle" pointer-events="none" font-family="sans-serif" dy="2.5" font-size="40" fill="#604A0E"/><text class="caption" text-anchor="middle" pointer-events="none" y="0" font-size="10px" fill="#604A0E" font-family="sans-serif"> MERCHANDISE</text><text class="caption" text-anchor="middle" pointer-events="none" y="10" font-size="10px" fill="#604A0E" font-family="sans-serif"> MART PROPE…</text></g><g class="node" transform="translate(117.42947714102354,154.6460891170951)"><circle class="outline" cx="0" cy="0" r="32.5" fill="#FF756E" stroke="#E06760" stroke-width="2px"/><text text-anchor="middle" pointer-events="none" font-family="sans-serif" dy="2.03125" font-size="32.5" fill="#FFFFFF"/><text text-anchor="middle" pointer-events="none" font-family="sans-serif" dy="2.03125" font-size="32.5" fill="#FFFFFF"/><text class="caption" text-anchor="middle" pointer-events="none" y="0" font-size="10px" fill="#FFFFFF" font-family="sans-serif"> MICHAEL</text><text class="caption" text-anchor="middle" pointer-events="none" y="10" font-size="10px" fill="#FFFFFF" font-family="sans-serif"> FASCITELLI</text></g><g class="node" transform="translate(164.61223056737015,62.370008414420354)"><circle class="outline" cx="0" cy="0" r="32.5" fill="#FF756E" stroke="#E06760" stroke-width="2px"/><text text-anchor="middle" pointer-events="none" font-family="sans-serif" dy="2.03125" font-size="32.5" fill="#FFFFFF"/><text text-anchor="middle" pointer-events="none" font-family="sans-serif" dy="2.03125" font-size="32.5" fill="#FFFFFF"/><text class="caption" text-anchor="middle" pointer-events="none" y="0" font-size="10px" fill="#FFFFFF" font-family="sans-serif"> STEVEN</text><text class="caption" text-anchor="middle" pointer-events="none" y="10" font-size="10px" fill="#FFFFFF" font-family="sans-serif"> ROTH</text></g></g></svg>