<svg xmlns="http://www.w3.org/2000/svg" width="730.779541015625" height="270.99212646484375" viewBox="-315.32269287109375 -37.07681655883789 730.779541015625 270.99212646484375"><title>Neo4j Graph Visualization</title><desc>Created using Neo4j (http://www.neo4j.com/)</desc><g class="layer relationships"><g class="relationship" transform="translate(378.9568056234507 29.195831559782388) rotate(193.47557872395225)"><path class="outline" fill="#A5ABB6" stroke="none" d="M 32.5 0.5 L 36.34032052676943 0.5 L 36.34032052676943 -0.5 L 32.5 -0.5 Z M 84.42235177676943 0.5 L 88.26267230353886 0.5 L 88.26267230353886 3.5 L 95.26267230353886 0 L 88.26267230353886 -3.5 L 88.26267230353886 -0.5 L 84.42235177676943 -0.5 Z"/><text text-anchor="middle" pointer-events="none" font-size="8px" fill="#000000" x="60.38133615176943" y="3" transform="rotate(180 60.38133615176943 0)" font-family="sans-serif">CAMPAIGN</text></g><g class="relationship" transform="translate(254.71152479419425 -0.5768173952679021) rotate(528.075750154469)"><path class="outline" fill="#A5ABB6" stroke="none" d="M 32.5 0.5 L 58.01637194082058 0.5 L 58.01637194082058 -0.5 L 32.5 -0.5 Z M 81.35230944082058 0.5 L 106.86868138164115 0.5 L 106.86868138164115 3.5 L 113.86868138164115 0 L 106.86868138164115 -3.5 L 106.86868138164115 -0.5 L 81.35230944082058 -0.5 Z"/><text text-anchor="middle" pointer-events="none" font-size="8px" fill="#000000" x="69.68434069082058" y="3" transform="rotate(180 69.68434069082058 0)" font-family="sans-serif">CEO</text></g><g class="relationship" transform="translate(-81.0666959912339 35.247865765867715) rotate(358.7528233758926)"><path class="outline" fill="#A5ABB6" stroke="none" d="M 40 0.5 L 58.87120844529713 0.5 L 58.87120844529713 -0.5 L 40 -0.5 Z M 119.40245844529713 0.5 L 138.27366689059426 0.5 L 138.27366689059426 3.5 L 145.27366689059426 0 L 138.27366689059426 -3.5 L 138.27366689059426 -0.5 L 119.40245844529713 -0.5 Z"/><text text-anchor="middle" pointer-events="none" font-size="8px" fill="#000000" x="89.13683344529713" y="3" font-family="sans-serif">PARENT_ORG</text></g><g class="relationship" transform="translate(-81.0666959912339 35.247865765867715) rotate(500.8908291070732)"><path class="outline" fill="#A5ABB6" stroke="none" d="M 40 0.5 L 71.4985898724824 0.5 L 71.4985898724824 -0.5 L 40 -0.5 Z M 166.6939023724824 0.5 L 198.1924922449648 0.5 L 198.1924922449648 3.5 L 205.1924922449648 0 L 198.1924922449648 -3.5 L 198.1924922449648 -0.5 L 166.6939023724824 -0.5 Z"/><text text-anchor="middle" pointer-events="none" font-size="8px" fill="#000000" x="119.0962461224824" y="3" transform="rotate(180 119.0962461224824 0)" font-family="sans-serif">AWARDED_CONTRACT</text></g><g class="relationship" transform="translate(253.69936074093835 91.34453602806889) rotate(333.61087539714686)"><path class="outline" fill="#A5ABB6" stroke="none" d="M 32.5 0.5 L 45.41012840253245 0.5 L 45.41012840253245 -0.5 L 32.5 -0.5 Z M 87.41794090253245 0.5 L 100.3280693050649 0.5 L 100.3280693050649 3.5 L 107.3280693050649 0 L 100.3280693050649 -3.5 L 100.3280693050649 -0.5 L 87.41794090253245 -0.5 Z"/><text text-anchor="middle" pointer-events="none" font-size="8px" fill="#000000" x="66.41403465253245" y="3" font-family="sans-serif">ADVISOR</text></g><g class="relationship" transform="translate(253.69936074093835 91.34453602806889) rotate(201.90529948554206)"><path class="outline" fill="#A5ABB6" stroke="none" d="M 32.5 0.5 L 57.89102011724425 0.5 L 57.89102011724425 -0.5 L 32.5 -0.5 Z M 88.78164511724425 0.5 L 114.1726652344885 0.5 L 114.1726652344885 3.5 L 121.1726652344885 0 L 114.1726652344885 -3.5 L 114.1726652344885 -0.5 L 88.78164511724425 -0.5 Z"/><text text-anchor="middle" pointer-events="none" font-size="8px" fill="#000000" x="73.33633261724425" y="3" transform="rotate(180 73.33633261724425 0)" font-family="sans-serif">CHAIR</text></g><g class="relationship" transform="translate(-69.83806962920814 191.82184731101796) rotate(180.54214668797698)"><path class="outline" fill="#A5ABB6" stroke="none" d="M 32.5 0.5 L 51.15893199067577 0.5 L 51.15893199067577 -0.5 L 32.5 -0.5 Z M 135.83471324067577 0.5 L 154.49364523135154 0.5 L 154.49364523135154 3.5 L 161.49364523135154 0 L 154.49364523135154 -3.5 L 154.49364523135154 -0.5 L 135.83471324067577 -0.5 Z"/><text text-anchor="middle" pointer-events="none" font-size="8px" fill="#000000" x="93.49682261567577" y="3" transform="rotate(180 93.49682261567577 0)" font-family="sans-serif">ISSUED_CONTRACT</text></g></g><g class="layer nodes"><g class="node" transform="translate(-69.83806962920814,191.82184731101796)"><circle class="outline" cx="0" cy="0" r="32.5" fill="#DE9BF9" stroke="#BF85D6" stroke-width="2px"/><text text-anchor="middle" pointer-events="none" font-family="sans-serif" dy="2.03125" font-size="32.5" fill="#FFFFFF"/><text text-anchor="middle" pointer-events="none" font-family="sans-serif" dy="2.03125" font-size="32.5" fill="#FFFFFF"/><text text-anchor="middle" pointer-events="none" font-family="sans-serif" dy="2.03125" font-size="32.5" fill="#FFFFFF"/><text class="caption" text-anchor="middle" pointer-events="none" y="-5" font-size="10px" fill="#FFFFFF" font-family="sans-serif"> FEDERAL</text><text class="caption" text-anchor="middle" pointer-events="none" y="5" font-size="10px" fill="#FFFFFF" font-family="sans-serif"> PRISON</text><text class="caption" text-anchor="middle" pointer-events="none" y="15" font-size="10px" fill="#FFFFFF" font-family="sans-serif"> SYSTEM</text></g><g class="node" transform="translate(-271.3226946542483,189.91529357804856)"><circle class="outline" cx="0" cy="0" r="40" fill="#FF756E" stroke="#E06760" stroke-width="2px"/><text text-anchor="middle" pointer-events="none" font-family="sans-serif" dy="2.5" font-size="40" fill="#FFFFFF"/><text class="caption" text-anchor="middle" pointer-events="none" y="5" font-size="10px" fill="#FFFFFF" font-family="sans-serif"> DJU4500517056</text></g><g class="node" transform="translate(378.9568056234507,29.195831559782388)"><circle class="outline" cx="0" cy="0" r="32.5" fill="#FF756E" stroke="#E06760" stroke-width="2px"/><text text-anchor="middle" pointer-events="none" font-family="sans-serif" dy="2.03125" font-size="32.5" fill="#FFFFFF"/><text text-anchor="middle" pointer-events="none" font-family="sans-serif" dy="2.03125" font-size="32.5" fill="#FFFFFF"/><text class="caption" text-anchor="middle" pointer-events="none" y="0" font-size="10px" fill="#FFFFFF" font-family="sans-serif"> DONALD J.</text><text class="caption" text-anchor="middle" pointer-events="none" y="10" font-size="10px" fill="#FFFFFF" font-family="sans-serif"> TRUMP</text></g><g class="node" transform="translate(254.71152479419425,-0.5768173952679021)"><circle class="outline" cx="0" cy="0" r="32.5" fill="#FF756E" stroke="#E06760" stroke-width="2px"/><text text-anchor="middle" pointer-events="none" font-family="sans-serif" dy="2.03125" font-size="32.5" fill="#FFFFFF"/><text class="caption" text-anchor="middle" pointer-events="none" y="0" font-size="10px" fill="#FFFFFF" dy="2.03125" font-family="sans-serif"> MICHAEL</text><text class="caption" text-anchor="middle" pointer-events="none" y="10" font-size="10px" fill="#FFFFFF" font-family="sans-serif"> FASCITELLI</text></g><g class="node" transform="translate(104.16307972379403,31.215269623512256)"><circle class="outline" cx="0" cy="0" r="40" fill="#FFD86E" stroke="#EDBA39" stroke-width="2px"/><text text-anchor="middle" pointer-events="none" font-family="sans-serif" dy="2.5" font-size="40" fill="#604A0E"/><text text-anchor="middle" pointer-events="none" font-family="sans-serif" dy="2.5" font-size="40" fill="#604A0E"/><text class="caption" text-anchor="middle" pointer-events="none" y="0" font-size="10px" fill="#604A0E" font-family="sans-serif"> VORNADO</text><text class="caption" text-anchor="middle" pointer-events="none" y="10" font-size="10px" fill="#604A0E" font-family="sans-serif"> REALTY TRUST</text></g><g class="node" transform="translate(-81.0666959912339,35.247865765867715)"><circle class="outline" cx="0" cy="0" r="40" fill="#FFD86E" stroke="#EDBA39" stroke-width="2px"/><text text-anchor="middle" pointer-events="none" font-family="sans-serif" dy="2.5" font-size="40" fill="#604A0E"/><text text-anchor="middle" pointer-events="none" font-family="sans-serif" dy="2.5" font-size="40" fill="#604A0E"/><text class="caption" text-anchor="middle" pointer-events="none" y="0" font-size="10px" fill="#604A0E" font-family="sans-serif"> MERCHANDISE</text><text class="caption" text-anchor="middle" pointer-events="none" y="10" font-size="10px" fill="#604A0E" font-family="sans-serif"> MART PROPE…</text></g><g class="node" transform="translate(253.69936074093835,91.34453602806889)"><circle class="outline" cx="0" cy="0" r="32.5" fill="#FF756E" stroke="#E06760" stroke-width="2px"/><text text-anchor="middle" pointer-events="none" font-family="sans-serif" dy="2.03125" font-size="32.5" fill="#FFFFFF"/><text text-anchor="middle" pointer-events="none" font-family="sans-serif" dy="2.03125" font-size="32.5" fill="#FFFFFF"/><text class="caption" text-anchor="middle" pointer-events="none" y="0" font-size="10px" fill="#FFFFFF" font-family="sans-serif"> STEVEN</text><text class="caption" text-anchor="middle" pointer-events="none" y="10" font-size="10px" fill="#FFFFFF" font-family="sans-serif"> ROTH</text></g></g></svg>