<svg xmlns="http://www.w3.org/2000/svg" width="1255.595947265625" height="658.2619018554688" viewBox="-494.98907470703125 -219.8719024658203 1255.595947265625 658.2619018554688"><title>Neo4j Graph Visualization</title><desc>Created using Neo4j (http://www.neo4j.com/)</desc><g class="layer relationships"><g class="relationship" transform="translate(575.8834176636017 100.69366418203008) rotate(421.4965446391159)"><path class="outline" fill="#A5ABB6" stroke="none" d="M 32.5 0.5 L 34.25866818499935 0.5 L 34.25866818499935 -0.5 L 32.5 -0.5 Z M 269.34460568499935 0.5 L 271.1032738699987 0.5 L 271.1032738699987 3.5 L 278.1032738699987 0 L 271.1032738699987 -3.5 L 271.1032738699987 -0.5 L 269.34460568499935 -0.5 Z"/><text text-anchor="middle" pointer-events="none" font-size="8px" fill="#000000" x="151.80163693499935" y="3" font-family="sans-serif">ASSISTANT_TO_THE_PRESIDENT_FOR_INTRAGOVERNM…</text></g><g class="relationship" transform="translate(575.8834176636017 100.69366418203008) rotate(213.24257101636528)"><path class="outline" fill="#A5ABB6" stroke="none" d="M 32.5 0.5 L 102.9392135490697 0.5 L 102.9392135490697 -0.5 L 32.5 -0.5 Z M 146.4353072990697 0.5 L 216.8745208481394 0.5 L 216.8745208481394 3.5 L 223.8745208481394 0 L 216.8745208481394 -3.5 L 216.8745208481394 -0.5 L 146.4353072990697 -0.5 Z"/><text text-anchor="middle" pointer-events="none" font-size="8px" fill="#000000" x="124.6872604240697" y="3" transform="rotate(180 124.6872604240697 0)" font-family="sans-serif">PARTNER</text></g><g class="relationship" transform="translate(355.1900515315683 -43.958335106425764) rotate(184.6817765384435)"><path class="outline" fill="#A5ABB6" stroke="none" d="M 40 0.5 L 57.66678112695445 0.5 L 57.66678112695445 -0.5 L 40 -0.5 Z M 101.16287487695445 0.5 L 118.8296560039089 0.5 L 118.8296560039089 3.5 L 125.8296560039089 0 L 118.8296560039089 -3.5 L 118.8296560039089 -0.5 L 101.16287487695445 -0.5 Z"/><text text-anchor="middle" pointer-events="none" font-size="8px" fill="#000000" x="79.41482800195445" y="3" transform="rotate(180 79.41482800195445 0)" font-family="sans-serif">PARTNER</text></g><g class="relationship" transform="translate(-52.548675779421785 49.40617079201019) rotate(336.2076913874481)"><path class="outline" fill="#A5ABB6" stroke="none" d="M 40 0.5 L 105.6141473139929 0.5 L 105.6141473139929 -0.5 L 40 -0.5 Z M 152.3680535639929 0.5 L 217.9822008779858 0.5 L 217.9822008779858 3.5 L 224.9822008779858 0 L 217.9822008779858 -3.5 L 217.9822008779858 -0.5 L 152.3680535639929 -0.5 Z"/><text text-anchor="middle" pointer-events="none" font-size="8px" fill="#000000" x="128.9911004389929" y="3" font-family="sans-serif">INVESTOR</text></g><g class="relationship" transform="translate(-229.46799561042226 46.220905690169474) rotate(361.0314449086221)"><path class="outline" fill="#A5ABB6" stroke="none" d="M 40 0.5 L 54.708370675612 0.5 L 54.708370675612 -0.5 L 40 -0.5 Z M 115.239620675612 0.5 L 129.947991351224 0.5 L 129.947991351224 3.5 L 136.947991351224 0 L 129.947991351224 -3.5 L 129.947991351224 -0.5 L 115.239620675612 -0.5 Z"/><text text-anchor="middle" pointer-events="none" font-size="8px" fill="#000000" x="84.973995675612" y="3" font-family="sans-serif">PARENT_ORG</text></g><g class="relationship" transform="translate(-229.46799561042226 46.220905690169474) rotate(539.3585989978687)"><path class="outline" fill="#A5ABB6" stroke="none" d="M 40 0.5 L 59.66982296506487 0.5 L 59.66982296506487 -0.5 L 40 -0.5 Z M 154.86513546506487 0.5 L 174.53495843012973 0.5 L 174.53495843012973 3.5 L 181.53495843012973 0 L 174.53495843012973 -3.5 L 174.53495843012973 -0.5 L 154.86513546506487 -0.5 Z"/><text text-anchor="middle" pointer-events="none" font-size="8px" fill="#000000" x="107.26747921506487" y="3" transform="rotate(180 107.26747921506487 0)" font-family="sans-serif">AWARDED_CONTRACT</text></g><g class="relationship" transform="translate(363.00475150212765 76.34815529879985) rotate(399.46506167015156)"><path class="outline" fill="#A5ABB6" stroke="none" d="M 32.5 0.5 L 192.2496583552603 0.5 L 192.2496583552603 -0.5 L 32.5 -0.5 Z M 268.4918458552603 0.5 L 428.2415042105206 0.5 L 428.2415042105206 3.5 L 435.2415042105206 0 L 428.2415042105206 -3.5 L 428.2415042105206 -0.5 L 268.4918458552603 -0.5 Z"/><text text-anchor="middle" pointer-events="none" font-size="8px" fill="#000000" x="230.3707521052603" y="3" font-family="sans-serif">SENIOR_ADVISER</text></g><g class="relationship" transform="translate(363.00475150212765 76.34815529879985) rotate(217.71280300289993)"><path class="outline" fill="#A5ABB6" stroke="none" d="M 32.5 0.5 L 90.48281647797953 0.5 L 90.48281647797953 -0.5 L 32.5 -0.5 Z M 113.81875397797953 0.5 L 171.80157045595905 0.5 L 171.80157045595905 3.5 L 178.80157045595905 0 L 171.80157045595905 -3.5 L 171.80157045595905 -0.5 L 113.81875397797953 -0.5 Z"/><text text-anchor="middle" pointer-events="none" font-size="8px" fill="#000000" x="102.15078522797953" y="3" transform="rotate(180 102.15078522797953 0)" font-family="sans-serif">CEO</text></g><g class="relationship" transform="translate(244.49924824803716 72.76780884750686) rotate(361.7305218143609)"><path class="outline" fill="#A5ABB6" stroke="none" d="M 32.5 0.5 L 32.85010075497046 0.5 L 32.85010075497046 -0.5 L 32.5 -0.5 Z M 78.70947575497047 0.5 L 79.05957650994092 0.5 L 79.05957650994092 3.5 L 86.05957650994092 0 L 79.05957650994092 -3.5 L 79.05957650994092 -0.5 L 78.70947575497047 -0.5 Z"/><text text-anchor="middle" pointer-events="none" font-size="8px" fill="#000000" x="55.77978825497046" y="3" font-family="sans-serif">PARENT…</text></g><g class="relationship" transform="translate(244.49924824803716 72.76780884750686) rotate(247.26406594060143)"><path class="outline" fill="#A5ABB6" stroke="none" d="M 32.5 0.5 L 51.70004789260284 0.5 L 51.70004789260284 -0.5 L 32.5 -0.5 Z M 75.03598539260284 0.5 L 94.23603328520568 0.5 L 94.23603328520568 3.5 L 101.23603328520568 0 L 94.23603328520568 -3.5 L 94.23603328520568 -0.5 L 75.03598539260284 -0.5 Z"/><text text-anchor="middle" pointer-events="none" font-size="8px" fill="#000000" x="63.36801664260284" y="3" transform="rotate(180 63.36801664260284 0)" font-family="sans-serif">CEO</text></g><g class="relationship" transform="translate(382.0255769466833 276.26343642999245) rotate(375.89075367123473)"><path class="outline" fill="#A5ABB6" stroke="none" d="M 32.5 0.5 L 145.99873319947682 0.5 L 145.99873319947682 -0.5 L 32.5 -0.5 Z M 202.67451444947682 0.5 L 316.17324764895363 0.5 L 316.17324764895363 3.5 L 323.17324764895363 0 L 316.17324764895363 -3.5 L 316.17324764895363 -0.5 L 202.67451444947682 -0.5 Z"/><text text-anchor="middle" pointer-events="none" font-size="8px" fill="#000000" x="174.33662382447682" y="3" font-family="sans-serif">COUNSELOR</text></g><g class="relationship" transform="translate(382.0255769466833 276.26343642999245) rotate(531.0616654007198)"><path class="outline" fill="#A5ABB6" stroke="none" d="M 32.5 0.5 L 53.57665283444453 0.5 L 53.57665283444453 -0.5 L 32.5 -0.5 Z M 124.33055908444453 0.5 L 145.40721191888906 0.5 L 145.40721191888906 3.5 L 152.40721191888906 0 L 145.40721191888906 -3.5 L 145.40721191888906 -0.5 L 124.33055908444453 -0.5 Z"/><text text-anchor="middle" pointer-events="none" font-size="8px" fill="#000000" x="88.95360595944453" y="3" transform="rotate(180 88.95360595944453 0)" font-family="sans-serif">INVOLVED_WITH</text></g><g class="relationship" transform="translate(191.95493255235533 306.1580068053164) rotate(269.67839382747184)"><path class="outline" fill="#A5ABB6" stroke="none" d="M 40 0.5 L 164.43609108178018 0.5 L 164.43609108178018 -0.5 L 40 -0.5 Z M 192.22124733178018 0.5 L 316.65733841356035 0.5 L 316.65733841356035 3.5 L 323.65733841356035 0 L 316.65733841356035 -3.5 L 316.65733841356035 -0.5 L 192.22124733178018 -0.5 Z"/><text text-anchor="middle" pointer-events="none" font-size="8px" fill="#000000" x="178.32866920678018" y="3" transform="rotate(180 178.32866920678018 0)" font-family="sans-serif">LOAN</text></g><g class="relationship" transform="translate(445.43764305538235 401.8899977685255) rotate(354.2131053142515)"><path class="outline" fill="#A5ABB6" stroke="none" d="M 32.5 0.5 L 114.88040067794975 0.5 L 114.88040067794975 -0.5 L 32.5 -0.5 Z M 158.21633817794975 0.5 L 240.5967388558995 0.5 L 240.5967388558995 3.5 L 247.5967388558995 0 L 240.5967388558995 -3.5 L 240.5967388558995 -0.5 L 158.21633817794975 -0.5 Z"/><text text-anchor="middle" pointer-events="none" font-size="8px" fill="#000000" x="136.54836942794975" y="3" font-family="sans-serif">NOMINEE</text></g><g class="relationship" transform="translate(445.43764305538235 401.8899977685255) rotate(200.68988349961506)"><path class="outline" fill="#A5ABB6" stroke="none" d="M 32.5 0.5 L 106.48082474133486 0.5 L 106.48082474133486 -0.5 L 32.5 -0.5 Z M 149.97691849133486 0.5 L 223.9577432326697 0.5 L 223.9577432326697 3.5 L 230.9577432326697 0 L 223.9577432326697 -3.5 L 223.9577432326697 -0.5 L 149.97691849133486 -0.5 Z"/><text text-anchor="middle" pointer-events="none" font-size="8px" fill="#000000" x="128.22887161633486" y="3" transform="rotate(180 128.22887161633486 0)" font-family="sans-serif">PARTNER</text></g><g class="relationship" transform="translate(436.87451291807787 327.51842812490355) rotate(369.1238398509172)"><path class="outline" fill="#A5ABB6" stroke="none" d="M 32.5 0.5 L 109.62061086824633 0.5 L 109.62061086824633 -0.5 L 32.5 -0.5 Z M 174.29248586824633 0.5 L 251.41309673649266 0.5 L 251.41309673649266 3.5 L 258.41309673649266 0 L 251.41309673649266 -3.5 L 251.41309673649266 -0.5 L 174.29248586824633 -0.5 Z"/><text text-anchor="middle" pointer-events="none" font-size="8px" fill="#000000" x="141.95654836824633" y="3" font-family="sans-serif">WHITE_HOUSE</text></g><g class="relationship" transform="translate(436.87451291807787 327.51842812490355) rotate(184.98438327735505)"><path class="outline" fill="#A5ABB6" stroke="none" d="M 32.5 0.5 L 96.22542121842933 0.5 L 96.22542121842933 -0.5 L 32.5 -0.5 Z M 135.12385871842935 0.5 L 198.84927993685866 0.5 L 198.84927993685866 3.5 L 205.84927993685866 0 L 198.84927993685866 -3.5 L 198.84927993685866 -0.5 L 135.12385871842935 -0.5 Z"/><text text-anchor="middle" pointer-events="none" font-size="8px" fill="#000000" x="115.67463996842933" y="3" transform="rotate(180 115.67463996842933 0)" font-family="sans-serif">BANKER</text></g><g class="relationship" transform="translate(448.17441274826956 97.47476517703564) rotate(405.0249991380542)"><path class="outline" fill="#A5ABB6" stroke="none" d="M 32.5 0.5 L 173.81028518217082 0.5 L 173.81028518217082 -0.5 L 32.5 -0.5 Z M 209.58762893217082 0.5 L 350.89791411434163 0.5 L 350.89791411434163 3.5 L 357.89791411434163 0 L 350.89791411434163 -3.5 L 350.89791411434163 -0.5 L 209.58762893217082 -0.5 Z"/><text text-anchor="middle" pointer-events="none" font-size="8px" fill="#000000" x="191.69895705717082" y="3" font-family="sans-serif">FRIEND</text></g><g class="relationship" transform="translate(448.17441274826956 97.47476517703564) rotate(236.67731533341453)"><path class="outline" fill="#A5ABB6" stroke="none" d="M 32.5 0.5 L 61.935375324614796 0.5 L 61.935375324614796 -0.5 L 32.5 -0.5 Z M 92.8260003246148 0.5 L 122.26137564922959 0.5 L 122.26137564922959 3.5 L 129.2613756492296 0 L 122.26137564922959 -3.5 L 122.26137564922959 -0.5 L 92.8260003246148 -0.5 Z"/><text text-anchor="middle" pointer-events="none" font-size="8px" fill="#000000" x="77.3806878246148" y="3" transform="rotate(180 77.3806878246148 0)" font-family="sans-serif">CHAIR</text></g><g class="relationship" transform="translate(470.7741692858011 187.9376957465048) rotate(396.2440013467063)"><path class="outline" fill="#A5ABB6" stroke="none" d="M 32.5 0.5 L 120.39938469731396 0.5 L 120.39938469731396 -0.5 L 32.5 -0.5 Z M 186.71188469731396 0.5 L 274.6112693946279 0.5 L 274.6112693946279 3.5 L 281.6112693946279 0 L 274.6112693946279 -3.5 L 274.6112693946279 -0.5 L 186.71188469731396 -0.5 Z"/><text text-anchor="middle" pointer-events="none" font-size="8px" fill="#000000" x="153.55563469731396" y="3" font-family="sans-serif">PARENT_CHILD</text></g><g class="relationship" transform="translate(363.00475150212765 76.34815529879985) rotate(405.9977015967823)"><path class="outline" fill="#A5ABB6" stroke="none" d="M 32.5 0.5 L 52.62155050663759 0.5 L 52.62155050663759 -0.5 L 32.5 -0.5 Z M 95.51217550663759 0.5 L 115.63372601327518 0.5 L 115.63372601327518 3.5 L 122.63372601327518 0 L 115.63372601327518 -3.5 L 115.63372601327518 -0.5 L 95.51217550663759 -0.5 Z"/><text text-anchor="middle" pointer-events="none" font-size="8px" fill="#000000" x="74.06686300663759" y="3" font-family="sans-serif">MARRIED</text></g><g class="relationship" transform="translate(724.1069522103987 373.64819802460227) rotate(207.91299507698113)"><path class="outline" fill="#A5ABB6" stroke="none" d="M 32.5 0.5 L 310.6187540619578 0.5 L 310.6187540619578 -0.5 L 32.5 -0.5 Z M 358.7007853119578 0.5 L 636.8195393739156 0.5 L 636.8195393739156 3.5 L 643.8195393739156 0 L 636.8195393739156 -3.5 L 636.8195393739156 -0.5 L 358.7007853119578 -0.5 Z"/><text text-anchor="middle" pointer-events="none" font-size="8px" fill="#000000" x="334.6597696869578" y="3" transform="rotate(180 334.6597696869578 0)" font-family="sans-serif">CAMPAIGN</text></g><g class="relationship" transform="translate(126.4707813177651 57.04256544720113) rotate(182.44257301536015)"><path class="outline" fill="#A5ABB6" stroke="none" d="M 32.5 0.5 L 70.67315879997194 0.5 L 70.67315879997194 -0.5 L 32.5 -0.5 Z M 94.00909629997194 0.5 L 132.1822550999439 0.5 L 132.1822550999439 3.5 L 139.1822550999439 0 L 132.1822550999439 -3.5 L 132.1822550999439 -0.5 L 94.00909629997194 -0.5 Z"/><text text-anchor="middle" pointer-events="none" font-size="8px" fill="#000000" x="82.34112754997194" y="3" transform="rotate(180 82.34112754997194 0)" font-family="sans-serif">CEO</text></g><g class="relationship" transform="translate(334.1076481969101 218.81917569123465) rotate(381.652988620662)"><path class="outline" fill="#A5ABB6" stroke="none" d="M 32.5 0.5 L 185.300456959939 0.5 L 185.300456959939 -0.5 L 32.5 -0.5 Z M 227.308269459939 0.5 L 380.108726419878 0.5 L 380.108726419878 3.5 L 387.108726419878 0 L 380.108726419878 -3.5 L 380.108726419878 -0.5 L 227.308269459939 -0.5 Z"/><text text-anchor="middle" pointer-events="none" font-size="8px" fill="#000000" x="206.304363209939" y="3" font-family="sans-serif">ADVISOR</text></g><g class="relationship" transform="translate(334.1076481969101 218.81917569123465) rotate(203.66057172779466)"><path class="outline" fill="#A5ABB6" stroke="none" d="M 32.5 0.5 L 188.37569397641943 0.5 L 188.37569397641943 -0.5 L 32.5 -0.5 Z M 219.26631897641943 0.5 L 375.14201295283885 0.5 L 375.14201295283885 3.5 L 382.14201295283885 0 L 375.14201295283885 -3.5 L 375.14201295283885 -0.5 L 219.26631897641943 -0.5 Z"/><text text-anchor="middle" pointer-events="none" font-size="8px" fill="#000000" x="203.82100647641943" y="3" transform="rotate(180 203.82100647641943 0)" font-family="sans-serif">CHAIR</text></g><g class="relationship" transform="translate(505.32484102358546 357.0594469650937) rotate(364.33605023171026)"><path class="outline" fill="#A5ABB6" stroke="none" d="M 32.5 0.5 L 82.38669843578813 0.5 L 82.38669843578813 -0.5 L 32.5 -0.5 Z M 130.02341718578813 0.5 L 179.91011562157627 0.5 L 179.91011562157627 3.5 L 186.91011562157627 0 L 179.91011562157627 -3.5 L 179.91011562157627 -0.5 L 130.02341718578813 -0.5 Z"/><text text-anchor="middle" pointer-events="none" font-size="8px" fill="#000000" x="106.20505781078813" y="3" font-family="sans-serif">DIRECTOR</text></g><g class="relationship" transform="translate(505.32484102358546 357.0594469650937) rotate(189.2261151191882)"><path class="outline" fill="#A5ABB6" stroke="none" d="M 32.5 0.5 L 125.5959302351381 0.5 L 125.5959302351381 -0.5 L 32.5 -0.5 Z M 177.3810864851381 0.5 L 270.4770167202762 0.5 L 270.4770167202762 3.5 L 277.4770167202762 0 L 270.4770167202762 -3.5 L 270.4770167202762 -0.5 L 177.3810864851381 -0.5 Z"/><text text-anchor="middle" pointer-events="none" font-size="8px" fill="#000000" x="151.4885083601381" y="3" transform="rotate(180 151.4885083601381 0)" font-family="sans-serif">PRESIDENT</text></g><g class="relationship" transform="translate(724.1069522103987 373.64819802460227) rotate(236.82898696715353)"><path class="outline" fill="#A5ABB6" stroke="none" d="M 32.5 0.5 L 205.25572351860123 0.5 L 205.25572351860123 -0.5 L 32.5 -0.5 Z M 257.04087976860126 0.5 L 429.79660328720246 0.5 L 429.79660328720246 3.5 L 436.79660328720246 0 L 429.79660328720246 -3.5 L 429.79660328720246 -0.5 L 257.04087976860126 -0.5 Z"/><text text-anchor="middle" pointer-events="none" font-size="8px" fill="#000000" x="231.14830164360123" y="3" transform="rotate(180 231.14830164360123 0)" font-family="sans-serif">PRESIDENT</text></g><g class="relationship" transform="translate(439.4110290815006 -175.8719067141604) rotate(441.0010922425453)"><path class="outline" fill="#A5ABB6" stroke="none" d="M 40 0.5 L 58.75554971670255 0.5 L 58.75554971670255 -0.5 L 40 -0.5 Z M 86.54070596670255 0.5 L 105.2962556834051 0.5 L 105.2962556834051 3.5 L 112.2962556834051 0 L 105.2962556834051 -3.5 L 105.2962556834051 -0.5 L 86.54070596670255 -0.5 Z"/><text text-anchor="middle" pointer-events="none" font-size="8px" fill="#000000" x="72.64812784170255" y="3" font-family="sans-serif">LOAN</text></g><g class="relationship" transform="translate(439.4110290815006 -175.8719067141604) rotate(514.6171933065493)"><path class="outline" fill="#A5ABB6" stroke="none" d="M 40 0.5 L 120.68560488455805 0.5 L 120.68560488455805 -0.5 L 40 -0.5 Z M 148.47076113455805 0.5 L 229.1563660191161 0.5 L 229.1563660191161 3.5 L 236.1563660191161 0 L 229.1563660191161 -3.5 L 229.1563660191161 -0.5 L 148.47076113455805 -0.5 Z"/><text text-anchor="middle" pointer-events="none" font-size="8px" fill="#000000" x="134.57818300955805" y="3" transform="rotate(180 134.57818300955805 0)" font-family="sans-serif">LOAN</text></g><g class="relationship" transform="translate(724.1069522103987 373.64819802460227) rotate(247.5369527402912)"><path class="outline" fill="#A5ABB6" stroke="none" d="M 32.5 0.5 L 190.65974635031952 0.5 L 190.65974635031952 -0.5 L 32.5 -0.5 Z M 242.44490260031952 0.5 L 400.60464895063905 0.5 L 400.60464895063905 3.5 L 407.60464895063905 0 L 400.60464895063905 -3.5 L 400.60464895063905 -0.5 L 242.44490260031952 -0.5 Z"/><text text-anchor="middle" pointer-events="none" font-size="8px" fill="#000000" x="216.55232447531952" y="3" transform="rotate(180 216.55232447531952 0)" font-family="sans-serif">PRESIDENT</text></g><g class="relationship" transform="translate(439.4110290815006 -175.8719067141604) rotate(410.08485910387043)"><path class="outline" fill="#A5ABB6" stroke="none" d="M 40 0.5 L 71.1848142774491 0.5 L 71.1848142774491 -0.5 L 40 -0.5 Z M 98.9699705274491 0.5 L 130.1547848048982 0.5 L 130.1547848048982 3.5 L 137.1547848048982 0 L 130.1547848048982 -3.5 L 130.1547848048982 -0.5 L 98.9699705274491 -0.5 Z"/><text text-anchor="middle" pointer-events="none" font-size="8px" fill="#000000" x="85.0773924024491" y="3" font-family="sans-serif">LOAN</text></g><g class="relationship" transform="translate(724.1069522103987 373.64819802460227) rotate(260.80322554450635)"><path class="outline" fill="#A5ABB6" stroke="none" d="M 32.5 0.5 L 113.7552371999422 0.5 L 113.7552371999422 -0.5 L 32.5 -0.5 Z M 165.5403934499422 0.5 L 246.7956306498844 0.5 L 246.7956306498844 3.5 L 253.7956306498844 0 L 246.7956306498844 -3.5 L 246.7956306498844 -0.5 L 165.5403934499422 -0.5 Z"/><text text-anchor="middle" pointer-events="none" font-size="8px" fill="#000000" x="139.6478153249422" y="3" transform="rotate(180 139.6478153249422 0)" font-family="sans-serif">PRESIDENT</text></g><g class="relationship" transform="translate(599.8099021792777 -162.7525310528492) rotate(432.57255708969916)"><path class="outline" fill="#A5ABB6" stroke="none" d="M 40 0.5 L 87.33847982361331 0.5 L 87.33847982361331 -0.5 L 40 -0.5 Z M 163.8970735736133 0.5 L 211.23555339722662 0.5 L 211.23555339722662 3.5 L 218.23555339722662 0 L 211.23555339722662 -3.5 L 211.23555339722662 -0.5 L 163.8970735736133 -0.5 Z"/><text text-anchor="middle" pointer-events="none" font-size="8px" fill="#000000" x="125.61777669861331" y="3" font-family="sans-serif">LEGAL_SERVICES</text></g><g class="relationship" transform="translate(599.8099021792777 -162.7525310528492) rotate(525.5979710709532)"><path class="outline" fill="#A5ABB6" stroke="none" d="M 40 0.5 L 169.8183968555019 0.5 L 169.8183968555019 -0.5 L 40 -0.5 Z M 246.3769906055019 0.5 L 376.1953874610038 0.5 L 376.1953874610038 3.5 L 383.1953874610038 0 L 376.1953874610038 -3.5 L 376.1953874610038 -0.5 L 246.3769906055019 -0.5 Z"/><text text-anchor="middle" pointer-events="none" font-size="8px" fill="#000000" x="208.0976937305019" y="3" transform="rotate(180 208.0976937305019 0)" font-family="sans-serif">LEGAL_SERVICES</text></g><g class="relationship" transform="translate(-354.7686739596744 329.75952249392486) rotate(251.10136781657923)"><path class="outline" fill="#A5ABB6" stroke="none" d="M 32.5 0.5 L 98.94859321684322 0.5 L 98.94859321684322 -0.5 L 32.5 -0.5 Z M 183.62437446684322 0.5 L 250.07296768368644 0.5 L 250.07296768368644 3.5 L 257.07296768368644 0 L 250.07296768368644 -3.5 L 250.07296768368644 -0.5 L 183.62437446684322 -0.5 Z"/><text text-anchor="middle" pointer-events="none" font-size="8px" fill="#000000" x="141.28648384184322" y="3" transform="rotate(180 141.28648384184322 0)" font-family="sans-serif">ISSUED_CONTRACT</text></g><g class="relationship" transform="translate(382.0255769466833 276.26343642999245) rotate(315.1368214622736)"><path class="outline" fill="#A5ABB6" stroke="none" d="M 32.5 0.5 L 33.060487454908596 0.5 L 33.060487454908596 -0.5 L 32.5 -0.5 Z M 85.1503312049086 0.5 L 85.71081865981719 0.5 L 85.71081865981719 3.5 L 92.71081865981719 0 L 85.71081865981719 -3.5 L 85.71081865981719 -0.5 L 85.1503312049086 -0.5 Z"/><text text-anchor="middle" pointer-events="none" font-size="8px" fill="#000000" x="59.105409329908596" y="3" font-family="sans-serif">IVANKA_T…</text></g><g class="relationship" transform="translate(575.8834176636017 100.69366418203008) rotate(181.44383152410103)"><path class="outline" fill="#A5ABB6" stroke="none" d="M 32.5 0.5 L 35.22048540891208 0.5 L 35.22048540891208 -0.5 L 32.5 -0.5 Z M 85.52907915891208 0.5 L 88.24956456782417 0.5 L 88.24956456782417 3.5 L 95.24956456782417 0 L 88.24956456782417 -3.5 L 88.24956456782417 -0.5 L 85.52907915891208 -0.5 Z"/><text text-anchor="middle" pointer-events="none" font-size="8px" fill="#000000" x="60.37478228391208" y="3" transform="rotate(180 60.37478228391208 0)" font-family="sans-serif">PARENT_…</text></g></g><g class="layer nodes"><g class="node" transform="translate(-354.7686739596744,329.75952249392486)"><circle class="outline" cx="0" cy="0" r="32.5" fill="#DE9BF9" stroke="#BF85D6" stroke-width="2px"/><text text-anchor="middle" pointer-events="none" font-family="sans-serif" dy="2.03125" font-size="32.5" fill="#FFFFFF"/><text text-anchor="middle" pointer-events="none" font-family="sans-serif" dy="2.03125" font-size="32.5" fill="#FFFFFF"/><text text-anchor="middle" pointer-events="none" font-family="sans-serif" dy="2.03125" font-size="32.5" fill="#FFFFFF"/><text class="caption" text-anchor="middle" pointer-events="none" y="-5" font-size="10px" fill="#FFFFFF" font-family="sans-serif"> FEDERAL</text><text class="caption" text-anchor="middle" pointer-events="none" y="5" font-size="10px" fill="#FFFFFF" font-family="sans-serif"> PRISON</text><text class="caption" text-anchor="middle" pointer-events="none" y="15" font-size="10px" fill="#FFFFFF" font-family="sans-serif"> SYSTEM</text></g><g class="node" transform="translate(-450.9890730090305,48.70084012461024)"><circle class="outline" cx="0" cy="0" r="40" fill="#FF756E" stroke="#E06760" stroke-width="2px"/><text text-anchor="middle" pointer-events="none" font-family="sans-serif" dy="2.5" font-size="40" fill="#FFFFFF"/><text class="caption" text-anchor="middle" pointer-events="none" y="5" font-size="10px" fill="#FFFFFF" font-family="sans-serif"> DJU4500517056</text></g><g class="node" transform="translate(724.1069522103987,373.64819802460227)"><circle class="outline" cx="0" cy="0" r="32.5" fill="#FF756E" stroke="#E06760" stroke-width="2px"/><text text-anchor="middle" pointer-events="none" font-family="sans-serif" dy="2.03125" font-size="32.5" fill="#FFFFFF"/><text text-anchor="middle" pointer-events="none" font-family="sans-serif" dy="2.03125" font-size="32.5" fill="#FFFFFF"/><text class="caption" text-anchor="middle" pointer-events="none" y="0" font-size="10px" fill="#FFFFFF" font-family="sans-serif"> DONALD J.</text><text class="caption" text-anchor="middle" pointer-events="none" y="10" font-size="10px" fill="#FFFFFF" font-family="sans-serif"> TRUMP</text></g><g class="node" transform="translate(470.7741692858011,187.9376957465048)"><circle class="outline" cx="0" cy="0" r="32.5" fill="#FF756E" stroke="#E06760" stroke-width="2px"/><text text-anchor="middle" pointer-events="none" font-family="sans-serif" dy="2.03125" font-size="32.5" fill="#FFFFFF"/><text text-anchor="middle" pointer-events="none" font-family="sans-serif" dy="2.03125" font-size="32.5" fill="#FFFFFF"/><text class="caption" text-anchor="middle" pointer-events="none" y="0" font-size="10px" fill="#FFFFFF" font-family="sans-serif"> IVANKA</text><text class="caption" text-anchor="middle" pointer-events="none" y="10" font-size="10px" fill="#FFFFFF" font-family="sans-serif"> TRUMP</text></g><g class="node" transform="translate(575.8834176636017,100.69366418203008)"><circle class="outline" cx="0" cy="0" r="32.5" fill="#FF756E" stroke="#E06760" stroke-width="2px"/><text text-anchor="middle" pointer-events="none" font-family="sans-serif" dy="2.03125" font-size="32.5" fill="#FFFFFF"/><text text-anchor="middle" pointer-events="none" font-family="sans-serif" dy="2.03125" font-size="32.5" fill="#FFFFFF"/><text class="caption" text-anchor="middle" pointer-events="none" y="0" font-size="10px" fill="#FFFFFF" font-family="sans-serif"> REED S.</text><text class="caption" text-anchor="middle" pointer-events="none" y="10" font-size="10px" fill="#FFFFFF" font-family="sans-serif"> CORDISH</text></g><g class="node" transform="translate(355.1900515315683,-43.958335106425764)"><circle class="outline" cx="0" cy="0" r="40" fill="#FFD86E" stroke="#EDBA39" stroke-width="2px"/><text text-anchor="middle" pointer-events="none" font-family="sans-serif" dy="2.5" font-size="40" fill="#604A0E"/><text text-anchor="middle" pointer-events="none" font-family="sans-serif" dy="2.5" font-size="40" fill="#604A0E"/><text class="caption" text-anchor="middle" pointer-events="none" y="0" font-size="10px" fill="#604A0E" font-family="sans-serif"> THE CORDISH</text><text class="caption" text-anchor="middle" pointer-events="none" y="10" font-size="10px" fill="#604A0E" font-family="sans-serif"> COMPANIES</text></g><g class="node" transform="translate(189.913703135955,-57.493602794454745)"><circle class="outline" cx="0" cy="0" r="40" fill="#FFD86E" stroke="#EDBA39" stroke-width="2px"/><text text-anchor="middle" pointer-events="none" font-family="sans-serif" dy="2.5" font-size="40" fill="#604A0E"/><text text-anchor="middle" pointer-events="none" font-family="sans-serif" dy="2.5" font-size="40" fill="#604A0E"/><text class="caption" text-anchor="middle" pointer-events="none" y="0" font-size="10px" fill="#604A0E" font-family="sans-serif"> KUSHNER</text><text class="caption" text-anchor="middle" pointer-events="none" y="10" font-size="10px" fill="#604A0E" font-family="sans-serif"> COMPANIES</text></g><g class="node" transform="translate(-52.548675779421785,49.40617079201019)"><circle class="outline" cx="0" cy="0" r="40" fill="#FFD86E" stroke="#EDBA39" stroke-width="2px"/><text text-anchor="middle" pointer-events="none" font-family="sans-serif" dy="2.5" font-size="40" fill="#604A0E"/><text text-anchor="middle" pointer-events="none" font-family="sans-serif" dy="2.5" font-size="40" fill="#604A0E"/><text class="caption" text-anchor="middle" pointer-events="none" y="0" font-size="10px" fill="#604A0E" font-family="sans-serif"> VORNADO</text><text class="caption" text-anchor="middle" pointer-events="none" y="10" font-size="10px" fill="#604A0E" font-family="sans-serif"> REALTY TRUST</text></g><g class="node" transform="translate(-229.46799561042226,46.220905690169474)"><circle class="outline" cx="0" cy="0" r="40" fill="#FFD86E" stroke="#EDBA39" stroke-width="2px"/><text text-anchor="middle" pointer-events="none" font-family="sans-serif" dy="2.5" font-size="40" fill="#604A0E"/><text text-anchor="middle" pointer-events="none" font-family="sans-serif" dy="2.5" font-size="40" fill="#604A0E"/><text class="caption" text-anchor="middle" pointer-events="none" y="0" font-size="10px" fill="#604A0E" font-family="sans-serif"> MERCHANDISE</text><text class="caption" text-anchor="middle" pointer-events="none" y="10" font-size="10px" fill="#604A0E" font-family="sans-serif"> MART PROPE…</text></g><g class="node" transform="translate(363.00475150212765,76.34815529879985)"><circle class="outline" cx="0" cy="0" r="32.5" fill="#FF756E" stroke="#E06760" stroke-width="2px"/><text text-anchor="middle" pointer-events="none" font-family="sans-serif" dy="2.03125" font-size="32.5" fill="#FFFFFF"/><text text-anchor="middle" pointer-events="none" font-family="sans-serif" dy="2.03125" font-size="32.5" fill="#FFFFFF"/><text class="caption" text-anchor="middle" pointer-events="none" y="0" font-size="10px" fill="#FFFFFF" font-family="sans-serif"> JARED</text><text class="caption" text-anchor="middle" pointer-events="none" y="10" font-size="10px" fill="#FFFFFF" font-family="sans-serif"> KUSHNER</text></g><g class="node" transform="translate(244.49924824803716,72.76780884750686)"><circle class="outline" cx="0" cy="0" r="32.5" fill="#FF756E" stroke="#E06760" stroke-width="2px"/><text text-anchor="middle" pointer-events="none" font-family="sans-serif" dy="2.03125" font-size="32.5" fill="#FFFFFF"/><text text-anchor="middle" pointer-events="none" font-family="sans-serif" dy="2.03125" font-size="32.5" fill="#FFFFFF"/><text class="caption" text-anchor="middle" pointer-events="none" y="0" font-size="10px" fill="#FFFFFF" font-family="sans-serif"> CHARLES</text><text class="caption" text-anchor="middle" pointer-events="none" y="10" font-size="10px" fill="#FFFFFF" font-family="sans-serif"> KUSHNER</text></g><g class="node" transform="translate(382.0255769466833,276.26343642999245)"><circle class="outline" cx="0" cy="0" r="32.5" fill="#FF756E" stroke="#E06760" stroke-width="2px"/><text text-anchor="middle" pointer-events="none" font-family="sans-serif" dy="2.03125" font-size="32.5" fill="#FFFFFF"/><text text-anchor="middle" pointer-events="none" font-family="sans-serif" dy="2.03125" font-size="32.5" fill="#FFFFFF"/><text class="caption" text-anchor="middle" pointer-events="none" y="0" font-size="10px" fill="#FFFFFF" font-family="sans-serif"> DINA</text><text class="caption" text-anchor="middle" pointer-events="none" y="10" font-size="10px" fill="#FFFFFF" font-family="sans-serif"> POWELL</text></g><g class="node" transform="translate(191.95493255235533,306.1580068053164)"><circle class="outline" cx="0" cy="0" r="40" fill="#FFD86E" stroke="#EDBA39" stroke-width="2px"/><text text-anchor="middle" pointer-events="none" font-family="sans-serif" dy="2.5" font-size="40" fill="#604A0E"/><text text-anchor="middle" pointer-events="none" font-family="sans-serif" dy="2.5" font-size="40" fill="#604A0E"/><text class="caption" text-anchor="middle" pointer-events="none" y="0" font-size="10px" fill="#604A0E" font-family="sans-serif"> GOLDMAN</text><text class="caption" text-anchor="middle" pointer-events="none" y="10" font-size="10px" fill="#604A0E" font-family="sans-serif"> SACHS</text></g><g class="node" transform="translate(445.43764305538235,401.8899977685255)"><circle class="outline" cx="0" cy="0" r="32.5" fill="#FF756E" stroke="#E06760" stroke-width="2px"/><text text-anchor="middle" pointer-events="none" font-family="sans-serif" dy="2.03125" font-size="32.5" fill="#FFFFFF"/><text text-anchor="middle" pointer-events="none" font-family="sans-serif" dy="2.03125" font-size="32.5" fill="#FFFFFF"/><text class="caption" text-anchor="middle" pointer-events="none" y="0" font-size="10px" fill="#FFFFFF" font-family="sans-serif"> STEVEN</text><text class="caption" text-anchor="middle" pointer-events="none" y="10" font-size="10px" fill="#FFFFFF" font-family="sans-serif"> MNUCHIN</text></g><g class="node" transform="translate(436.87451291807787,327.51842812490355)"><circle class="outline" cx="0" cy="0" r="32.5" fill="#FF756E" stroke="#E06760" stroke-width="2px"/><text text-anchor="middle" pointer-events="none" font-family="sans-serif" dy="2.03125" font-size="32.5" fill="#FFFFFF"/><text text-anchor="middle" pointer-events="none" font-family="sans-serif" dy="2.03125" font-size="32.5" fill="#FFFFFF"/><text class="caption" text-anchor="middle" pointer-events="none" y="0" font-size="10px" fill="#FFFFFF" font-family="sans-serif"> STEPHEN</text><text class="caption" text-anchor="middle" pointer-events="none" y="10" font-size="10px" fill="#FFFFFF" font-family="sans-serif"> BANNON</text></g><g class="node" transform="translate(448.17441274826956,97.47476517703564)"><circle class="outline" cx="0" cy="0" r="32.5" fill="#FF756E" stroke="#E06760" stroke-width="2px"/><text text-anchor="middle" pointer-events="none" font-family="sans-serif" dy="2.03125" font-size="32.5" fill="#FFFFFF"/><text text-anchor="middle" pointer-events="none" font-family="sans-serif" dy="2.03125" font-size="32.5" fill="#FFFFFF"/><text class="caption" text-anchor="middle" pointer-events="none" y="0" font-size="10px" fill="#FFFFFF" font-family="sans-serif"> DAVID S.</text><text class="caption" text-anchor="middle" pointer-events="none" y="10" font-size="10px" fill="#FFFFFF" font-family="sans-serif"> CORDISH</text></g><g class="node" transform="translate(126.4707813177651,57.04256544720113)"><circle class="outline" cx="0" cy="0" r="32.5" fill="#FF756E" stroke="#E06760" stroke-width="2px"/><text text-anchor="middle" pointer-events="none" font-family="sans-serif" dy="2.03125" font-size="32.5" fill="#FFFFFF"/><text text-anchor="middle" pointer-events="none" font-family="sans-serif" dy="2.03125" font-size="32.5" fill="#FFFFFF"/><text class="caption" text-anchor="middle" pointer-events="none" y="0" font-size="10px" fill="#FFFFFF" font-family="sans-serif"> MICHAEL</text><text class="caption" text-anchor="middle" pointer-events="none" y="10" font-size="10px" fill="#FFFFFF" font-family="sans-serif"> FASCITELLI</text></g><g class="node" transform="translate(334.1076481969101,218.81917569123465)"><circle class="outline" cx="0" cy="0" r="32.5" fill="#FF756E" stroke="#E06760" stroke-width="2px"/><text text-anchor="middle" pointer-events="none" font-family="sans-serif" dy="2.03125" font-size="32.5" fill="#FFFFFF"/><text text-anchor="middle" pointer-events="none" font-family="sans-serif" dy="2.03125" font-size="32.5" fill="#FFFFFF"/><text class="caption" text-anchor="middle" pointer-events="none" y="0" font-size="10px" fill="#FFFFFF" font-family="sans-serif"> STEVEN</text><text class="caption" text-anchor="middle" pointer-events="none" y="10" font-size="10px" fill="#FFFFFF" font-family="sans-serif"> ROTH</text></g><g class="node" transform="translate(505.32484102358546,357.0594469650937)"><circle class="outline" cx="0" cy="0" r="32.5" fill="#FF756E" stroke="#E06760" stroke-width="2px"/><text text-anchor="middle" pointer-events="none" font-family="sans-serif" dy="2.03125" font-size="32.5" fill="#FFFFFF"/><text class="caption" text-anchor="middle" pointer-events="none" y="5" font-size="10px" fill="#FFFFFF" font-family="sans-serif"> GARY COHN</text></g><g class="node" transform="translate(463.2325448482193,-25.450216517031336)"><circle class="outline" cx="0" cy="0" r="40" fill="#FFD86E" stroke="#EDBA39" stroke-width="2px"/><text text-anchor="middle" pointer-events="none" font-family="sans-serif" dy="2.5" font-size="40" fill="#604A0E"/><text text-anchor="middle" pointer-events="none" font-family="sans-serif" dy="2.5" font-size="40" fill="#604A0E"/><text class="caption" text-anchor="middle" pointer-events="none" y="0" font-size="10px" fill="#604A0E" font-family="sans-serif"> DJT HOLDINGS</text><text class="caption" text-anchor="middle" pointer-events="none" y="10" font-size="10px" fill="#604A0E" font-family="sans-serif"> LLC</text></g><g class="node" transform="translate(439.4110290815006,-175.8719067141604)"><circle class="outline" cx="0" cy="0" r="40" fill="#FFD86E" stroke="#EDBA39" stroke-width="2px"/><text text-anchor="middle" pointer-events="none" font-family="sans-serif" dy="2.5" font-size="40" fill="#604A0E"/><text text-anchor="middle" pointer-events="none" font-family="sans-serif" dy="2.5" font-size="40" fill="#604A0E"/><text class="caption" text-anchor="middle" pointer-events="none" y="0" font-size="10px" fill="#604A0E" font-family="sans-serif"> DEUTSCHE</text><text class="caption" text-anchor="middle" pointer-events="none" y="10" font-size="10px" fill="#604A0E" font-family="sans-serif"> BANK</text></g><g class="node" transform="translate(553.0828111296659,-39.99496332322225)"><circle class="outline" cx="0" cy="0" r="40" fill="#FFD86E" stroke="#EDBA39" stroke-width="2px"/><text text-anchor="middle" pointer-events="none" font-family="sans-serif" dy="2.5" font-size="40" fill="#604A0E"/><text text-anchor="middle" pointer-events="none" font-family="sans-serif" dy="2.5" font-size="40" fill="#604A0E"/><text text-anchor="middle" pointer-events="none" font-family="sans-serif" dy="2.5" font-size="40" fill="#604A0E"/><text class="caption" text-anchor="middle" pointer-events="none" y="-5" font-size="10px" fill="#604A0E" font-family="sans-serif"> 401 NORTH</text><text class="caption" text-anchor="middle" pointer-events="none" y="5" font-size="10px" fill="#604A0E" font-family="sans-serif"> WABASH</text><text class="caption" text-anchor="middle" pointer-events="none" y="15" font-size="10px" fill="#604A0E" font-family="sans-serif"> VENTURE LLC</text></g><g class="node" transform="translate(677.150884784516,83.62923257430752)"><circle class="outline" cx="0" cy="0" r="40" fill="#FFD86E" stroke="#EDBA39" stroke-width="2px"/><text text-anchor="middle" pointer-events="none" font-family="sans-serif" dy="2.5" font-size="40" fill="#604A0E"/><text text-anchor="middle" pointer-events="none" font-family="sans-serif" dy="2.5" font-size="40" fill="#604A0E"/><text class="caption" text-anchor="middle" pointer-events="none" y="0" font-size="10px" fill="#604A0E" font-family="sans-serif"> THE TRUMP</text><text class="caption" text-anchor="middle" pointer-events="none" y="10" font-size="10px" fill="#604A0E" font-family="sans-serif"> ORGANIZATI…</text></g><g class="node" transform="translate(599.8099021792777,-162.7525310528492)"><circle class="outline" cx="0" cy="0" r="40" fill="#FFD86E" stroke="#EDBA39" stroke-width="2px"/><text text-anchor="middle" pointer-events="none" font-family="sans-serif" dy="2.5" font-size="40" fill="#604A0E"/><text text-anchor="middle" pointer-events="none" font-family="sans-serif" dy="2.5" font-size="40" fill="#604A0E"/><text class="caption" text-anchor="middle" pointer-events="none" y="0" font-size="10px" fill="#604A0E" font-family="sans-serif"> GREENBERG</text><text class="caption" text-anchor="middle" pointer-events="none" y="10" font-size="10px" fill="#604A0E" font-family="sans-serif"> TRAURIG LLP</text></g></g></svg>